<?xml version="1.0" encoding="utf-8"?>
<!-- Generator: Adobe Illustrator 16.0.0, SVG Export Plug-In . SVG Version: 6.00 Build 0)  -->
<!DOCTYPE svg PUBLIC "-//W3C//DTD SVG 1.1//EN" "http://www.w3.org/Graphics/SVG/1.1/DTD/svg11.dtd">
<svg version="1.1" id="Layer_1" xmlns="http://www.w3.org/2000/svg" xmlns:xlink="http://www.w3.org/1999/xlink" x="0px" y="0px"
	 width="70px" height="70px" viewBox="0 0 70 70" enable-background="new 0 0 70 70" xml:space="preserve">
<path fill="#CC8D83" d="M57.985,48.466c0,7.02-2.329,12.18-6.996,15.512C46.322,67.326,39.82,69,31.506,69
	c-4.764,0-8.771-0.283-12.042-0.833c-3.271-0.566-5.96-1.262-8.1-2.127V54.741c1.666,1.02,4.282,1.966,7.853,2.831
	c3.559,0.865,7.072,1.311,10.518,1.311c4.845,0,8.189-0.647,10.012-1.949c1.828-1.303,2.734-3.454,2.734-6.462
	c0-1.925-0.655-3.624-1.966-5.107c-1.322-1.492-5.05-3.466-11.213-5.916c-4.917-1.986-8.71-4.513-11.387-7.595
	c-2.697-3.081-4.04-7.279-4.04-12.604c0-5.075,2.159-9.365,6.502-12.867c4.331-3.514,10.332-5.253,17.962-5.253
	c3.7,0,7.037,0.299,10.013,0.894c2.96,0.615,5.03,1.145,6.228,1.618v9.952c-2.507-0.619-5.015-1.148-7.489-1.629
	c-2.475-0.473-5.115-0.704-7.934-0.704c-3.967,0-6.83,0.619-8.577,1.872c-1.751,1.25-2.636,2.807-2.636,4.679
	c0,2.341,0.655,4.108,1.973,5.301c1.314,1.201,5.168,2.956,11.553,5.313c5.961,2.147,10.215,4.889,12.738,8.209
	C56.731,39.929,57.985,43.888,57.985,48.466"/>
</svg>
